<svg
 xmlns="http://www.w3.org/2000/svg"
 xmlns:xlink="http://www.w3.org/1999/xlink" width="30px" height="30px"><path fill-rule="evenodd" fill="currentColor" d="M15.000,30.000 C6.729,30.000 -0.000,23.271 -0.000,15.000 C-0.000,6.729 6.729,-0.000 15.000,-0.000 C23.271,-0.000 30.000,6.729 30.000,15.000 C30.000,23.271 23.271,30.000 15.000,30.000 ZM15.000,1.875 C7.763,1.875 1.875,7.763 1.875,15.000 C1.875,22.237 7.763,28.125 15.000,28.125 C22.237,28.125 28.125,22.237 28.125,15.000 C28.125,7.763 22.237,1.875 15.000,1.875 ZM22.428,15.359 C22.380,15.473 22.312,15.577 22.225,15.663 L18.475,19.413 C18.292,19.596 18.053,19.688 17.813,19.688 C17.573,19.688 17.333,19.596 17.150,19.413 C16.783,19.047 16.783,18.454 17.150,18.088 L19.299,15.937 L8.438,15.937 C7.920,15.937 7.500,15.518 7.500,15.000 C7.500,14.482 7.920,14.062 8.438,14.062 L19.299,14.062 L17.150,11.912 C16.783,11.547 16.783,10.953 17.150,10.587 C17.516,10.221 18.109,10.221 18.475,10.587 L22.223,14.335 C22.310,14.422 22.380,14.526 22.428,14.642 C22.474,14.753 22.497,14.871 22.498,14.990 C22.498,14.993 22.500,14.996 22.500,15.000 C22.500,15.000 22.500,15.000 22.500,15.000 C22.500,15.122 22.475,15.244 22.428,15.359 Z"></path></svg>