<svg 
 xmlns="http://www.w3.org/2000/svg"
 xmlns:xlink="http://www.w3.org/1999/xlink"
 width="9px" height="18px">
<path fill-rule="evenodd"  fill="rgb(255, 255, 255)"
 d="M8.762,5.424 C8.969,5.659 9.049,5.971 8.981,6.281 L8.612,7.991 C8.490,8.554 7.909,8.995 7.290,8.995 L6.038,8.995 L6.038,16.875 C6.038,17.496 5.530,17.999 4.861,17.999 L3.038,17.999 C2.368,17.999 1.823,17.494 1.823,16.873 L1.823,8.995 L1.215,8.995 C0.545,8.995 -0.000,8.490 -0.000,7.870 L-0.000,6.181 C-0.000,5.561 0.545,5.055 1.215,5.055 L1.823,5.055 L1.823,3.376 C1.823,1.533 3.429,0.035 5.413,0.010 C5.432,0.008 5.449,-0.001 5.468,-0.001 L7.899,-0.001 C8.234,-0.001 8.453,0.252 8.453,0.563 L8.453,3.375 C8.453,3.686 8.234,3.939 7.899,3.939 L6.076,3.939 L6.075,5.055 L7.897,5.055 C8.240,5.055 8.555,5.190 8.762,5.424 ZM5.491,6.181 C5.483,6.182 5.476,6.186 5.467,6.186 C5.467,6.186 5.467,6.186 5.466,6.186 C5.131,6.186 4.859,5.933 4.859,5.622 L4.859,5.619 C4.859,5.619 4.859,5.619 4.859,5.619 C4.859,5.619 4.859,5.619 4.859,5.619 L4.861,3.376 C4.861,3.065 5.133,2.813 5.468,2.813 L7.291,2.813 L7.291,1.125 L5.491,1.125 C5.481,1.126 5.472,1.131 5.462,1.131 C4.126,1.131 3.038,2.138 3.038,3.376 C3.038,3.407 3.024,3.434 3.019,3.464 L3.019,5.531 C3.024,5.561 3.038,5.587 3.038,5.619 C3.038,5.777 2.966,5.919 2.853,6.021 C2.747,6.125 2.600,6.190 2.430,6.190 C2.414,6.190 2.400,6.182 2.383,6.181 L1.215,6.181 L1.215,7.870 L2.430,7.870 C2.766,7.870 3.038,8.121 3.038,8.432 C3.038,8.463 3.024,8.490 3.019,8.520 L3.019,16.875 L4.861,16.873 L4.861,8.438 C4.861,8.436 4.859,8.434 4.859,8.432 C4.859,8.121 5.131,7.870 5.467,7.870 L7.290,7.870 C7.335,7.870 7.412,7.810 7.421,7.770 L7.764,6.181 L5.491,6.181 Z"/>
</svg>