<svg 
 xmlns="http://www.w3.org/2000/svg"
 xmlns:xlink="http://www.w3.org/1999/xlink"
 width="18px" height="15px">
<path fill-rule="evenodd"  fill="rgb(255, 255, 255)"
 d="M11.820,1.154 C12.748,1.154 13.801,1.530 14.391,2.157 C15.124,2.012 15.816,1.746 16.438,1.376 C16.198,2.128 15.686,2.757 15.020,3.155 C15.672,3.076 16.296,2.905 16.874,2.648 C16.440,3.293 15.894,3.859 15.264,4.314 C15.269,4.451 15.272,4.590 15.272,4.728 C15.272,8.978 12.141,13.846 6.205,13.846 C4.383,13.846 2.570,13.346 1.144,12.433 C1.396,12.465 1.653,12.480 1.912,12.480 C3.425,12.480 4.817,11.966 5.922,11.101 C4.508,11.077 3.316,10.146 2.907,8.869 C3.103,8.906 3.306,8.927 3.515,8.927 C3.808,8.927 4.094,8.888 4.364,8.814 C2.887,8.520 1.775,7.220 1.775,5.661 C1.775,5.646 1.775,5.633 1.775,5.619 C2.211,5.861 2.708,6.006 3.237,6.023 C2.371,5.445 1.802,4.462 1.802,3.346 C1.802,2.756 1.961,2.203 2.238,1.730 C3.829,3.674 6.208,4.955 8.891,5.090 C8.835,4.854 8.806,4.606 8.806,4.358 C8.806,2.580 10.037,1.154 11.820,1.154 M16.874,2.648 L16.876,2.648 M11.820,0.000 C9.648,0.000 7.968,1.589 7.716,3.780 C5.914,3.407 4.275,2.426 3.098,0.987 C2.883,0.725 2.568,0.576 2.238,0.576 C2.209,0.576 2.179,0.577 2.150,0.580 C1.789,0.609 1.463,0.815 1.276,1.134 C0.885,1.801 0.679,2.566 0.679,3.346 C0.679,3.866 0.770,4.373 0.942,4.846 C0.758,5.055 0.652,5.330 0.652,5.619 L0.652,5.661 C0.652,6.791 1.087,7.840 1.809,8.626 C1.768,8.824 1.777,9.032 1.840,9.230 C2.090,10.009 2.543,10.679 3.131,11.190 C2.736,11.280 2.328,11.326 1.912,11.326 C1.693,11.326 1.480,11.313 1.279,11.288 C1.234,11.282 1.188,11.279 1.143,11.279 C0.672,11.279 0.244,11.584 0.085,12.050 C-0.091,12.560 0.103,13.127 0.550,13.413 C2.150,14.436 4.159,15.000 6.205,15.000 C10.069,15.000 12.469,13.179 13.801,11.651 C15.417,9.799 16.358,7.337 16.394,4.878 C16.918,4.432 17.380,3.918 17.772,3.342 C17.914,3.149 17.998,2.909 17.998,2.648 C17.998,2.255 17.808,1.908 17.516,1.700 C17.643,1.256 17.498,0.775 17.146,0.481 C16.942,0.310 16.690,0.223 16.438,0.223 C16.245,0.223 16.051,0.274 15.876,0.377 C15.501,0.600 15.099,0.776 14.676,0.901 C13.899,0.342 12.844,0.000 11.820,0.000 L11.820,0.000 Z"/>
</svg>