<svg 
 xmlns="http://www.w3.org/2000/svg"
 xmlns:xlink="http://www.w3.org/1999/xlink"
 width="20px" height="20px">
<path fill-rule="evenodd"  fill="rgb(255, 255, 255)"
 d="M18.750,20.000 L1.250,20.000 C0.561,20.000 -0.000,19.439 -0.000,18.750 L-0.000,3.125 C-0.000,2.436 0.561,1.875 1.250,1.875 L6.250,1.875 L6.250,0.625 C6.250,0.280 6.530,0.000 6.875,0.000 C7.220,0.000 7.500,0.280 7.500,0.625 L7.500,1.875 L12.500,1.875 L12.500,0.625 C12.500,0.280 12.780,0.000 13.125,0.000 C13.470,0.000 13.750,0.280 13.750,0.625 L13.750,1.875 L18.750,1.875 C19.439,1.875 20.000,2.436 20.000,3.125 L20.000,18.750 C20.000,19.439 19.439,20.000 18.750,20.000 ZM13.750,3.125 L13.750,3.750 C13.750,4.095 13.470,4.375 13.125,4.375 C12.780,4.375 12.500,4.095 12.500,3.750 L12.500,3.125 L7.500,3.125 L7.500,3.750 C7.500,4.095 7.220,4.375 6.875,4.375 C6.530,4.375 6.250,4.095 6.250,3.750 L6.250,3.125 L1.250,3.125 L1.250,18.750 L18.748,18.750 L18.750,3.125 L13.750,3.125 ZM15.625,15.000 L14.375,15.000 C14.030,15.000 13.750,14.720 13.750,14.375 L13.750,13.125 C13.750,12.780 14.030,12.500 14.375,12.500 L15.625,12.500 C15.970,12.500 16.250,12.780 16.250,13.125 L16.250,14.375 C16.250,14.720 15.970,15.000 15.625,15.000 ZM15.625,10.000 L14.375,10.000 C14.030,10.000 13.750,9.720 13.750,9.375 L13.750,8.125 C13.750,7.780 14.030,7.500 14.375,7.500 L15.625,7.500 C15.970,7.500 16.250,7.780 16.250,8.125 L16.250,9.375 C16.250,9.720 15.970,10.000 15.625,10.000 ZM10.625,15.000 L9.375,15.000 C9.030,15.000 8.750,14.720 8.750,14.375 L8.750,13.125 C8.750,12.780 9.030,12.500 9.375,12.500 L10.625,12.500 C10.970,12.500 11.250,12.780 11.250,13.125 L11.250,14.375 C11.250,14.720 10.970,15.000 10.625,15.000 ZM10.625,10.000 L9.375,10.000 C9.030,10.000 8.750,9.720 8.750,9.375 L8.750,8.125 C8.750,7.780 9.030,7.500 9.375,7.500 L10.625,7.500 C10.970,7.500 11.250,7.780 11.250,8.125 L11.250,9.375 C11.250,9.720 10.970,10.000 10.625,10.000 ZM5.625,15.000 L4.375,15.000 C4.030,15.000 3.750,14.720 3.750,14.375 L3.750,13.125 C3.750,12.780 4.030,12.500 4.375,12.500 L5.625,12.500 C5.970,12.500 6.250,12.780 6.250,13.125 L6.250,14.375 C6.250,14.720 5.970,15.000 5.625,15.000 ZM5.625,10.000 L4.375,10.000 C4.030,10.000 3.750,9.720 3.750,9.375 L3.750,8.125 C3.750,7.780 4.030,7.500 4.375,7.500 L5.625,7.500 C5.970,7.500 6.250,7.780 6.250,8.125 L6.250,9.375 C6.250,9.720 5.970,10.000 5.625,10.000 Z"/>
</svg>