<svg 
 xmlns="http://www.w3.org/2000/svg"
 xmlns:xlink="http://www.w3.org/1999/xlink"
 width="22px" height="22px">
<path fill-rule="evenodd"  fill="rgb(255, 182, 0)"
 d="M11.000,22.000 C4.935,22.000 0.000,17.065 0.000,11.000 C0.000,4.935 4.935,0.000 11.000,0.000 C17.065,0.000 22.000,4.935 22.000,11.000 C22.000,17.065 17.065,22.000 11.000,22.000 ZM11.000,1.375 C5.693,1.375 1.375,5.693 1.375,11.000 C1.375,16.307 5.693,20.625 11.000,20.625 C16.307,20.625 20.625,16.307 20.625,11.000 C20.625,5.693 16.307,1.375 11.000,1.375 ZM14.924,14.924 C14.789,15.058 14.613,15.125 14.437,15.125 C14.262,15.125 14.086,15.058 13.951,14.924 L11.000,11.972 L8.049,14.924 C7.914,15.058 7.738,15.125 7.563,15.125 C7.387,15.125 7.211,15.058 7.076,14.924 C6.808,14.655 6.808,14.220 7.076,13.952 L10.028,11.000 L7.076,8.049 C6.808,7.781 6.808,7.345 7.076,7.077 C7.345,6.808 7.780,6.808 8.049,7.077 L11.000,10.028 L13.951,7.077 C14.220,6.808 14.655,6.808 14.924,7.077 C15.192,7.345 15.192,7.781 14.924,8.049 L11.972,11.000 L14.924,13.952 C15.192,14.220 15.192,14.655 14.924,14.924 Z"/>
</svg>